<svg xmlns="http://www.w3.org/2000/svg" viewBox="0 0 512 512" role="img" aria-label="ConnectChat Pro logo">
  <defs>
    <linearGradient id="g" x1="64" y1="48" x2="448" y2="464" gradientUnits="userSpaceOnUse">
      <stop stop-color="#5b6cff"/>
      <stop offset="1" stop-color="#7f56d9"/>
    </linearGradient>
    <filter id="s" x="-20%" y="-20%" width="140%" height="140%">
      <feDropShadow dx="0" dy="18" stdDeviation="18" flood-color="#2633a8" flood-opacity=".28"/>
    </filter>
  </defs>
  <rect x="40" y="40" width="432" height="432" rx="132" fill="url(#g)" filter="url(#s)"/>
  <path d="M151 154h210c39 0 71 31 71 70v74c0 39-32 70-71 70H247l-76 57c-14 10-34 0-34-18v-48c-29-11-49-38-49-70v-65c0-39 29-70 63-70Z" fill="#fff"/>
  <circle cx="204" cy="263" r="22" fill="#6670ee"/>
  <circle cx="288" cy="263" r="22" fill="#6670ee"/>
  <circle cx="372" cy="263" r="22" fill="#6670ee"/>
</svg>
